<svg width="24" height="24" viewBox="0 0 24 24" fill="none" xmlns="http://www.w3.org/2000/svg">
<path fill-rule="evenodd" clip-rule="evenodd" d="M13.707 20.218C14.1024 20.392 14.5212 20.4797 14.9439 20.4797C15.1738 20.4797 15.4049 20.4538 15.6339 20.4016C16.2841 20.2531 16.8569 19.9067 17.2905 19.3998C17.724 18.8929 17.9772 18.2733 18.023 17.608C18.0687 16.9426 17.9027 16.2942 17.5429 15.7327L15.3743 12.3498C14.4744 10.9457 12.9416 10.1075 11.2742 10.1075C9.60683 10.1075 8.07393 10.9457 7.17412 12.3498L5.00554 15.7327C4.64574 16.2941 4.47972 16.9424 4.52534 17.6077C4.57097 18.2728 4.82411 18.8925 5.25731 19.3995C5.69096 19.9063 6.26362 20.2528 6.9138 20.4013C7.56398 20.5499 8.23048 20.4866 8.84114 20.2182L8.88097 20.2005C10.4177 19.5381 12.1741 19.5439 13.707 20.218ZM14.179 19.1449C13.2558 18.7388 12.2649 18.5359 11.2737 18.5359C10.2834 18.5359 9.29264 18.7387 8.3701 19.1441L8.34385 19.1557C7.57313 19.4818 6.69392 19.2753 6.14841 18.6377C5.59742 17.9927 5.53471 17.0794 5.99247 16.3653L8.1612 12.9823C8.84434 11.9163 10.0081 11.2799 11.2741 11.2799C12.5402 11.2799 13.704 11.9163 14.3872 12.9823L16.5558 16.3652C17.0137 17.0796 16.9509 17.993 16.3996 18.6377C15.848 19.2825 14.9556 19.4864 14.179 19.1449Z" fill="#F4B207"/>
<path fill-rule="evenodd" clip-rule="evenodd" d="M2.21364 10.5853C2.66499 11.7559 3.7177 12.4949 4.782 12.4949C5.05376 12.4949 5.32628 12.4467 5.58965 12.3452C6.23479 12.0973 6.7249 11.5774 6.9698 10.8813C7.20281 10.2188 7.18358 9.47078 6.91579 8.77498C6.64784 8.07964 6.16048 7.51186 5.54357 7.17647C4.89522 6.82415 4.18324 6.76677 3.53902 7.01488C2.24324 7.51323 1.64861 9.11449 2.21364 10.5853ZM3.96016 8.10909C4.08544 8.06087 4.21758 8.03691 4.35262 8.03691C4.56106 8.03691 4.77636 8.09398 4.98357 8.20659C5.35619 8.40908 5.65389 8.76079 5.82174 9.19643C5.98958 9.63222 6.00439 10.0924 5.86385 10.4924C5.73492 10.859 5.48818 11.1283 5.16912 11.251L5.16851 11.2512C4.47652 11.5181 3.64171 11.0301 3.30785 10.1641C2.97475 9.29744 3.26726 8.37551 3.96016 8.10909Z" fill="#F4B207"/>
<path fill-rule="evenodd" clip-rule="evenodd" d="M6.85992 6.34778C6.85992 8.19333 8.17767 9.69479 9.79739 9.69479C11.4173 9.69479 12.7352 8.19333 12.7352 6.34778C12.7352 4.50177 11.4173 3 9.79739 3C8.17767 3 6.85992 4.50177 6.85992 6.34778ZM8.03226 6.34778C8.03226 5.14828 8.82404 4.17233 9.7974 4.17233C10.7708 4.17233 11.5628 5.14828 11.5628 6.34778C11.5628 7.54697 10.7708 8.52246 9.7974 8.52246C8.82404 8.52246 8.03226 7.54697 8.03226 6.34778Z" fill="#F4B207"/>
<path fill-rule="evenodd" clip-rule="evenodd" d="M14.8711 10.5171C15.1203 10.6 15.3745 10.6393 15.6277 10.6393C16.809 10.6393 17.9603 9.77949 18.3996 8.45808C18.6526 7.69743 18.6359 6.89314 18.3527 6.19352C18.0564 5.46125 17.5072 4.92964 16.8062 4.69664C16.1053 4.46364 15.3467 4.56068 14.6709 4.97007C14.0253 5.361 13.5306 5.99531 13.2781 6.75596C12.7448 8.36042 13.4594 10.0477 14.871 10.5171H14.8711ZM17.2871 8.08821C16.9576 9.07942 16.0396 9.66993 15.2409 9.40458C14.4427 9.13908 14.0612 8.11674 14.3906 7.12553C14.5556 6.62901 14.8708 6.21946 15.2782 5.97273C15.6554 5.74446 16.0668 5.68617 16.4365 5.809C16.8059 5.93199 17.1006 6.22465 17.266 6.63328C17.4447 7.07487 17.4523 7.59153 17.2871 8.08821Z" fill="#F4B207"/>
<path fill-rule="evenodd" clip-rule="evenodd" d="M17.6586 14.7172C18.0654 15.0186 18.546 15.1626 19.038 15.1626C19.8954 15.1626 20.7874 14.725 21.3837 13.9203C22.3194 12.6544 22.1732 10.9526 21.0576 10.1265L21.0572 10.126C19.9401 9.30081 18.2694 9.65848 17.3327 10.9237C16.3968 12.1898 16.5432 13.8916 17.6586 14.7172ZM18.2752 11.6209C18.6419 11.1256 19.1776 10.85 19.6711 10.85C19.9207 10.85 20.1597 10.9207 20.3605 11.069C20.9565 11.5109 20.9925 12.4772 20.4413 13.2229C19.8882 13.9694 18.953 14.217 18.3564 13.775C17.7599 13.3336 17.7237 12.3671 18.2752 11.6209Z" fill="#F4B207"/>
</svg>
