<svg width="20" height="20" viewBox="0 0 20 20" fill="none" xmlns="http://www.w3.org/2000/svg">
<path d="M10.5859 5.3125C10.5859 2.40621 8.21871 0 5.3125 0C2.40629 0 0 2.40621 0 5.3125C0 8.01953 2.10156 10.2344 4.72656 10.5273V14.1016H2.96875C2.64059 14.1016 2.38281 14.3593 2.38281 14.6875C2.38281 15.0156 2.64059 15.2734 2.96875 15.2734H4.72656V17.0312C4.72656 17.3593 4.98434 17.6172 5.3125 17.6172C5.64066 17.6172 5.89844 17.3593 5.89844 17.0312V15.2734H7.65625C7.98441 15.2734 8.24219 15.0156 8.24219 14.6875C8.24219 14.3593 7.98441 14.1016 7.65625 14.1016H5.89844V10.5273C8.52344 10.2344 10.5859 8.01953 10.5859 5.3125ZM5.3125 9.41406C3.05078 9.41406 1.17188 7.57422 1.17188 5.3125C1.17188 3.05078 3.05078 1.17188 5.3125 1.17188C7.57422 1.17188 9.41406 3.05078 9.41406 5.3125C9.41406 7.57422 7.57422 9.41406 5.3125 9.41406Z" fill="#FF8893"/>
<path d="M15.2734 9.47267V4.38669L16.6211 5.72263C16.8438 5.957 17.2187 5.957 17.4414 5.72263C17.6758 5.49997 17.6758 5.12497 17.4414 4.90231L15.0977 2.55856C14.875 2.32423 14.5001 2.32423 14.2774 2.55856L11.9336 4.90231C11.6993 5.12497 11.6993 5.49997 11.9336 5.72263C12.1563 5.957 12.5312 5.957 12.7539 5.72263L14.1016 4.38669V9.47267C11.4766 9.76563 9.41406 11.9805 9.41406 14.6875C9.41406 17.5937 11.7813 20 14.6875 20C17.5937 20 20 17.5937 20 14.6875C20 11.9805 17.8984 9.76563 15.2734 9.47267ZM14.6875 18.8281C12.4258 18.8281 10.5859 16.9492 10.5859 14.6875C10.5859 12.4258 12.4258 10.5859 14.6875 10.5859C16.9492 10.5859 18.8281 12.4258 18.8281 14.6875C18.8281 16.9492 16.9492 18.8281 14.6875 18.8281Z" fill="#FF8893"/>
</svg>
